Cover 

 
http://yankoimages.net/k0ag6m3a55w6/Geetanjali.1993.X264.AAC.RRG.DADA..jpg.html


Screens
 
http://yankoimages.net/fx4j6uvihigc/Geetanjali.1993.X264.AAC.RRG.DADA.DBBIANS.Com_thumbs.jpg.html



 
http://www.imdb.com/title/tt0268326


General

Format                           : MP4 Video
File size                        : 790 MiB
Duration                         : 2h 31mn
Overall bit rate                 : 729 Kbps

Video
Format                           : AVC
Format/Info                      : Advanced Video Codec
Format profile                   : Main@L3.0
Format settings, CABAC           : Yes
Format settings, ReFrames        : 3 frames
Duration                         : 2h 31mn
Bit rate                         : 592 Kbps
Width                            : 640 pixels
Height                           : 480 pixels
Display aspect ratio             : 4:3
Frame rate mode                  : Constant
Frame rate                       : 25.000 fps
Color space                      : YUV
Chroma subsampling               : 4:2:0
Bit depth                        : 8 bits
Scan type                        : Progressive
Bits/(Pixel*Frame)               : 0.077
Stream size                      : 642 MiB (81%)

Audio
Format                           : AAC
Format/Info                      : Advanced Audio Codec
Format version                   : Version 4
Format profile                   : LC
Format settings, SBR             : No
Duration                         : 2h 31mn
Bit rate                         : 129 Kbps
Channel(s)                       : 2 channels
Channel positions                : Front: L R
Sampling rate                    : 44.1 KHz
Bit depth                        : 16 bits
Stream size                      : 140 MiB (18%)



Geetanjali is the story of two twin sisters Geeta and Anjali (Rekha in double role). Geeta is a music teacher and Anjali is a world renowned famous dancer. Sagar (Jeetendra) is a college professor who has come to his sisters place to spend his holiday. There he meets Geeta, they fall in love and get married. In course of time they have a child. Geeta is of very suspicious nature. Whenever Sagar comes late she suspects that he must be having an affair with his female students. One of the students, Kaveri, flirts with Sagar so that he will pass her in the exams. She tries to take advantage of Sagar but when she is turned down, Kaveri reports to the principal that Sagar tried to rape her. Sagar is suspended till further enquiry and Geeta who had always suspected Sagar, leaves the house and goes to stay with her sister. Anjali knew Sagar well and did not believe Geeta. Anjali goes to Sagar's house as Geeta to find out the truth. Will Sagar's innocence be proved?

Geetanjali Cast & Crew:

    Banner
    Shakti Films

    Release Date
    1 Jan 1993

    Genre
    Drama

    Producer
    Shakti Samanta

    Star Cast
    Jeetendra
    Rekha
    Vijay Arora
    Amita Nangia
    Asrani
    Ajit Vachchani
    Dalip Tahil
